<svg width="20" height="12" viewBox="0 0 20 12" fill="none" xmlns="http://www.w3.org/2000/svg">
<path d="M10.0195 7.53369C10.8313 7.53369 11.3508 8.515 11.4873 9.64404C11.6265 10.8031 11.9169 11.7544 10.0195 11.7544C8.12246 11.7543 8.41356 10.8032 8.55273 9.64502C8.68919 8.51609 9.20789 7.53389 10.0195 7.53369ZM13.1094 0.898926C14.2506 0.0225699 15.7486 -0.239203 17.1084 0.228027C18.1649 0.59194 19.0657 1.52164 19.5781 2.77979C20.0625 3.96728 20.1334 5.30686 19.7695 6.37061C19.5327 7.06371 19.1085 7.55824 18.4795 7.8833C18.2908 7.98139 17.9586 8.06042 17.5977 8.12842L17.5469 8.13818C17.4711 8.1522 17.3941 8.16517 17.3174 8.17822L15.4883 9.57764L15.957 7.91357L16.1162 7.31006L17.6543 7.05322C17.7983 7.01836 17.9205 6.98099 18.001 6.93896C18.3888 6.73404 18.6221 6.46198 18.7705 6.02393C19.0531 5.19714 18.9901 4.13342 18.6016 3.1792C18.2023 2.20366 17.5343 1.49353 16.7676 1.23193C15.8096 0.901141 14.7567 1.05493 13.9189 1.62158L14.5625 3.02881L12.8701 1.97412C11.9974 1.4717 11.008 1.20655 10.001 1.20654C8.99398 1.20654 8.0046 1.47169 7.13184 1.97412L5.43945 3.02881L6.08301 1.62158C5.24447 1.05491 4.19136 0.901136 3.2334 1.23193C2.46653 1.49356 1.79871 2.20402 1.39941 3.1792C1.01089 4.13341 0.94801 5.19715 1.22949 6.02393C1.3779 6.4621 1.61121 6.73402 2 6.93896C2.08038 6.98092 2.20268 7.01841 2.3457 7.05322L3.88281 7.30908L4.04199 7.9126L4.51172 9.57666L2.68164 8.17725C2.60497 8.1642 2.52786 8.15121 2.45215 8.13721L2.40234 8.12842C2.04133 8.06043 1.7092 7.98137 1.52051 7.8833C0.891394 7.55777 0.467099 7.06321 0.230469 6.37061C-0.133512 5.30663 -0.0637004 3.9672 0.420898 2.77979C0.933112 1.52169 1.83422 0.592023 2.89062 0.228027C4.25133 -0.238902 5.74942 0.0226658 6.89062 0.898926C7.85241 0.404268 8.91851 0.146996 10 0.146973C11.0815 0.146973 12.1476 0.404325 13.1094 0.898926Z" fill="#062B38"/>
</svg>
