<svg width="20" height="20" viewBox="0 0 20 20" fill="none" xmlns="http://www.w3.org/2000/svg">
<path d="M6.40914 10.6967C7.04608 10.1571 7.66537 10.1101 8.07155 10.1665L8.56368 8.36442C8.28347 8.24804 5.84637 7.37696 1.25 10.1242V12.3554C2.24839 11.6842 3.13258 11.201 3.90374 10.8554C3.13847 12.2155 2.67341 14.0717 2.51447 16.4063L4.35113 17.4643C4.41118 15.4976 4.76321 12.0921 6.41032 10.6967H6.40914ZM11.8779 13.7061C11.0914 13.4252 10.7418 12.9138 10.5864 12.5341L8.77796 13.009C8.81681 13.31 9.27833 15.8527 13.9595 18.4542L15.895 17.3386C14.813 16.8107 13.9524 16.2876 13.2672 15.7939C14.8295 15.7751 16.6721 15.2496 18.776 14.2198V12.1027C17.0394 13.0337 13.9112 14.4326 11.8767 13.7061H11.8779ZM8.27406 13.7778C8.12453 12.9573 8.39297 12.3989 8.64492 12.0745L7.32865 10.7484C7.08729 10.9318 5.11288 12.6046 5.19765 17.9522L7.13203 19.0678C7.04844 17.8687 7.07198 16.8625 7.15793 16.0231C7.955 17.3644 9.33249 18.6951 11.2775 20L13.1141 18.942C11.4388 17.9063 8.6614 15.8997 8.27406 13.7778ZM11.7543 7.47218C11.9038 8.29271 11.6354 8.8511 11.3834 9.17555L12.6997 10.5016C12.9411 10.3182 14.9155 8.64655 14.8307 3.29781L12.8963 2.18221C12.9799 3.38127 12.9564 4.38754 12.8704 5.22688C12.0734 3.88558 10.6959 2.55486 8.75088 1.25L6.91422 2.30799C8.59076 3.34365 11.3669 5.35031 11.7543 7.47218ZM16.1246 10.3946C16.8899 9.03448 17.3549 7.17829 17.5139 4.84365L15.6772 3.78566C15.6172 5.75235 15.2651 9.15674 13.618 10.5533C12.9811 11.0929 12.3618 11.1399 11.9556 11.0835L11.4635 12.8856C11.5789 12.9338 12.0569 13.1089 12.8987 13.1089C14.1078 13.1089 16.0669 12.7457 18.7772 11.127V8.89577C17.7788 9.56701 16.8946 10.0502 16.1234 10.3946H16.1246ZM8.15043 7.54389C8.9369 7.82484 9.28658 8.33621 9.44199 8.71591L11.2504 8.24099C11.2115 7.94005 10.75 5.39734 6.06888 2.79585L4.13332 3.91144C5.21531 4.43926 6.07595 4.96238 6.76116 5.45611C5.19882 5.47492 3.35628 6.00039 1.25235 7.03017V9.14734C2.98894 8.2163 6.11716 6.8174 8.15161 7.54389H8.15043Z" fill="#10131A"/>
</svg>
