<svg width="20" height="20" viewBox="0 0 20 20" fill="none" xmlns="http://www.w3.org/2000/svg">
<path d="M10.625 1.875C12.2682 1.875 13.6598 2.93286 14.167 4.40332C15.6957 4.60721 16.875 5.91553 16.875 7.5C16.875 7.7335 16.8484 7.9608 16.7998 8.17969C16.878 8.21447 16.951 8.26517 17.0117 8.33301C17.704 9.10658 18.126 10.13 18.126 11.25C18.126 11.9895 17.9402 12.6853 17.6162 13.2959C17.9361 13.7864 18.1249 14.3712 18.125 15C18.125 16.7259 16.7259 18.125 15 18.125C13.5627 18.125 12.3529 17.1544 11.9883 15.833C11.8872 15.8539 11.7855 15.8713 11.6846 15.8779C11.1367 15.9136 10.5353 15.7628 9.99023 15.4521C9.51081 15.1788 9.11774 14.8059 8.86133 14.3906C8.85284 14.3769 8.84516 14.3626 8.83691 14.3486C8.15358 14.7881 7.28675 15 6.25 15C4.75301 15 3.35371 14.5631 2.31641 13.7051C1.26711 12.837 0.625 11.5657 0.625 10C0.625011 8.28023 1.39859 6.7418 2.61328 5.71094C2.87464 3.89524 4.43716 2.5 6.3252 2.5C6.94071 2.5 7.52264 2.64927 8.03613 2.91309C8.70927 2.2703 9.62077 1.875 10.625 1.875ZM10.625 3.125C9.24429 3.125 8.125 4.24429 8.125 5.625C8.125 5.97018 7.84518 6.25 7.5 6.25C7.15482 6.25 6.875 5.97018 6.875 5.625C6.875 5.018 7.01935 4.44474 7.27539 3.9375C6.98278 3.81709 6.66221 3.75 6.3252 3.75C4.94448 3.75 3.8252 4.86929 3.8252 6.25C3.8252 7.63071 4.94448 8.75 6.3252 8.75C6.67037 8.75 6.9502 9.02982 6.9502 9.375C6.9502 9.72018 6.67037 10 6.3252 10C4.64718 10 3.22682 8.89779 2.74805 7.37793C2.19981 8.10903 1.87501 9.01637 1.875 10C1.875 11.1957 2.35294 12.1122 3.11328 12.7412C3.88558 13.3801 4.98582 13.75 6.25 13.75C7.431 13.75 8.14362 13.4295 8.58887 12.9307C8.63242 12.7941 8.71821 12.6818 8.83008 12.6055C9.18865 12.0186 9.375 11.1652 9.375 10C9.375 9.69141 9.34168 9.39117 9.28125 9.10156C9.21946 9.07368 9.15895 9.04454 9.10059 9.0127C8.67895 8.78263 8.30222 8.4209 8.15234 7.93359C8.05101 7.60373 8.23655 7.2538 8.56641 7.15234C8.89627 7.05101 9.2462 7.23655 9.34766 7.56641C9.37331 7.64955 9.4663 7.78789 9.69922 7.91504C9.92588 8.03869 10.2421 8.125 10.6064 8.125C11.0242 8.12493 11.3737 8.01191 11.6006 7.8623C11.8325 7.70927 11.875 7.56824 11.875 7.5C11.875 7.15482 12.1548 6.875 12.5 6.875C12.8452 6.875 13.125 7.15482 13.125 7.5C13.125 8.12191 12.7435 8.60587 12.29 8.90527C11.8316 9.20787 11.2342 9.37493 10.6064 9.375C10.5999 9.375 10.5934 9.37406 10.5869 9.37402C10.6099 9.5798 10.625 9.78842 10.625 10C10.625 11.3332 10.4056 12.5198 9.79492 13.4131C9.80995 13.4985 9.84641 13.6073 9.9248 13.7344C10.0605 13.954 10.2929 14.1858 10.6094 14.3662C10.972 14.5728 11.3315 14.6474 11.6025 14.6299C11.8798 14.6118 11.9867 14.5104 12.0205 14.4512C12.1915 14.1513 12.5732 14.0468 12.873 14.2178C13.1586 14.3806 13.2639 14.733 13.126 15.0254C13.1396 16.0492 13.9729 16.875 15 16.875C16.0355 16.875 16.875 16.0355 16.875 15C16.875 14.7923 16.8386 14.5936 16.7764 14.4072C16.5889 14.5869 16.3868 14.7513 16.1699 14.8955C15.8826 15.0864 15.4948 15.0079 15.3037 14.7207C15.1128 14.4333 15.1912 14.0456 15.4785 13.8545C16.3218 13.2935 16.876 12.3361 16.876 11.25C16.876 10.5445 16.6413 9.8951 16.2471 9.37207C15.677 10.1313 14.7725 10.625 13.75 10.625C13.4048 10.625 13.125 10.3452 13.125 10C13.125 9.65482 13.4048 9.375 13.75 9.375C14.7855 9.375 15.625 8.53553 15.625 7.5C15.625 6.46447 14.7855 5.625 13.75 5.625C13.7391 5.625 13.7285 5.62164 13.7178 5.62109C13.4144 5.63628 13.1375 5.43088 13.0752 5.12402C12.8435 3.98329 11.8337 3.125 10.625 3.125Z" fill="#E5B9C5"/>
</svg>
